<svg xmlns="http://www.w3.org/2000/svg" xmlns:xlink="http://www.w3.org/1999/xlink" xmlns:inkscape="http://www.inkscape.org/namespaces/inkscape" version="1.1" width="2250" height="2250" viewBox="0 0 2250 2250">
<defs>
<clipPath id="clip_0">
<path transform="matrix(.24,0,0,.24,0,0)" d="M0 0H9375V9375H0Z" clip-rule="evenodd"/>
</clipPath>
<clipPath id="clip_1">
<path transform="matrix(.24,0,0,.24,0,0)" d="M0 0H9375V9375H0Z" clip-rule="evenodd"/>
</clipPath>
<clipPath id="clip_2">
<path transform="matrix(.24,0,0,.24,0,0)" d="M0 0H9375V9375H0Z" clip-rule="evenodd"/>
</clipPath>
<clipPath id="clip_3">
<path transform="matrix(.24,0,0,.24,0,0)" d="M3628.4005 4580.623H7097.459V4772.663H3628.4005Z" clip-rule="evenodd"/>
</clipPath>
<clipPath id="clip_4">
<path transform="matrix(.24,0,0,.24,0,0)" d="M0 0H9375V9375H0Z" clip-rule="evenodd"/>
</clipPath>
<clipPath id="clip_5">
<path transform="matrix(.24,0,0,.24,0,0)" d="M1950.0007 3847.1004H3343.7508V5240.8508H1950.0007Z" clip-rule="evenodd"/>
</clipPath>
</defs>
<g clip-path="url(#clip_0)">
<path transform="matrix(.75,0,0,.75,0,0)" d="M0 0H3000V3000H0Z" fill="#ffffff"/>
</g>
<g clip-path="url(#clip_1)">
<path transform="matrix(.75,0,0,.75,0,0)" d="M0 0H3000V3000H0Z" fill="#ffffff"/>
</g>
<g clip-path="url(#clip_2)">
<text xml:space="preserve" transform="matrix(3.5697466 0 0 3.5697466 835.7934 991.3119)" font-size="94.75" font-family="Cinzel"><tspan y="65" x="3.28125 35.306734 123.51892 187.66463">&#x0130;MRA</tspan></text>
</g>
<g clip-path="url(#clip_3)">
<path transform="matrix(.18003741,0,0,.18003741,870.8161,1099.3495)" d="M0 0H4624V256H0Z" fill="#ffffff"/>
</g>
<g clip-path="url(#clip_4)">
<text xml:space="preserve" transform="matrix(2.3063446 0 0 2.3063446 719.4914 1095.8712)" font-size="14.66" font-family="Quicksand"><tspan y="17" x="163.4375 182.968 205.92809 227.84757 243.245 263.2152 283.80097 299.1984 320.50233">LOGISTICS</tspan></text>
</g>
<g clip-path="url(#clip_5)">
<path transform="matrix(.87289229,0,0,.87289229,416.76139,872.589)" d="M333.1 303.9C333.1 314.6 331.80003 325.3 329.30003 335.69999 329.00004 336.69999 328.90003 337.8 328.6 338.8V338.9C328.6 338.9 328.6 338.9 328.6 338.9 322.6 361.6 310.80003 383 293 400.8 278.8 415 262.4 425.4 244.8 432 244.8 432 244.7 432 244.7 432.1 229.09999 438 212.5 441 195.9 441 162 441 128.2 428.6 101.799999 403.6 100.799999 402.7 99.899997 401.7 98.899997 400.80003 97.99999 399.80003 96.99999 398.90003 96.09999 397.90003 71.19999 371.50004 58.69999 337.7 58.69999 303.80003 58.69999 300.2 58.89999 296.50004 59.09999 292.90003 64.399997 300.30003 70.399997 307.40003 76.99999 314.00004 98.7 335.70005 124.899997 350.20005 152.69998 357.60005 152.79999 357.60005 152.79999 357.70005 152.89998 357.70005 161.69998 360.00004 170.59998 361.60005 179.59998 362.50004 181.49997 362.70005 183.39998 362.80003 185.29998 362.90003 188.79998 363.10005 192.19997 363.2 195.69997 363.2 195.79998 363.2 195.79998 363.2 195.89997 363.2 205.39997 363.2 214.89997 362.40003 224.29996 360.80003 233.69995 359.2 242.99996 356.7 252.09996 353.50004 253.19997 353.10005 254.39997 352.70005 255.49996 352.30003 276.99995 344.1 297.19996 331.30003 314.59996 314.00004 321.19996 307.40003 327.19996 300.30003 332.49995 292.90003 332.59996 294.40003 332.79994 296.00004 332.79994 297.60005 333 299.7 333.1 301.8 333.1 303.9Z" fill="#366eb9"/>
<path transform="matrix(.87289229,0,0,.87289229,416.76139,872.589)" d="M441.6 195.2C441.6 198.8 441.4 202.5 441.2 206.09999 435.90003 198.7 429.90003 191.59999 423.30003 184.99999 401.6 163.29999 375.40003 148.79999 347.60005 141.4 347.50004 141.4 347.50004 141.29999 347.40003 141.29999 336.90003 138.49999 326.10005 136.79999 315.30003 136.09999 311.7 135.9 308.1 135.79999 304.50004 135.79999 302.00004 135.79999 299.40003 135.9 296.90003 135.99999 293.60005 136.19998 290.30003 136.39998 287.00004 136.79999 284.80003 136.99999 282.60005 137.29999 280.40003 137.59999 279.30003 137.79999 278.2 137.9 277.10005 138.09999 276.60005 138.2 276.10005 138.2 275.60005 138.29999 275.50004 138.29999 275.40003 138.29999 275.30006 138.4 274.80006 138.5 274.30006 138.59999 273.80006 138.7 272.70005 138.9 271.60005 139.09999 270.50007 139.3 269.40007 139.5 268.30006 139.8 267.20008 140 266.60008 140.1 266.10008 140.3 265.60008 140.4 265.30009 140.5 265.00007 140.5 264.80009 140.59999 264.5001 140.7 264.30009 140.7 264.0001 140.79999 262.9001 141.09999 261.80009 141.29999 260.7001 141.59999 259.40013 141.99999 258.0001 142.29999 256.7001 142.7 256.6001 142.8 256.40013 142.8 256.3001 142.8 256.2001 142.90001 256.1001 142.90001 256.00013 142.90001 255.90012 142.90001 255.90012 142.90001 255.80013 143.00002 255.80013 143.00002 255.70012 143.00002 255.70012 143.00002 255.50012 143.10002 255.20012 143.10002 255.00012 143.20001 254.90012 143.20001 254.80013 143.30002 254.70012 143.30002 254.60012 143.30002 254.50012 143.40003 254.40012 143.40003 253.80011 143.60002 253.10012 143.80002 252.50012 144.00003 251.90012 144.20003 251.40012 144.40003 250.80013 144.60004 250.70012 144.60004 250.60013 144.70005 250.50012 144.70005 250.20012 144.80005 249.90012 144.90004 249.70012 145.00005 249.40012 145.10005 249.10012 145.20005 248.90012 145.30005 248.60012 145.40006 248.40012 145.50005 248.10012 145.60005 247.0001 146.00005 246.0001 146.40006 245.0001 146.70006 223.5001 154.90006 203.30011 167.70006 186.0001 185.00006 179.4001 191.60007 173.4001 198.70006 168.10012 206.10007 168.0001 204.60007 167.90012 203.00006 167.80011 201.50006 167.7001 199.40006 167.7001 197.40006 167.7001 195.30007 167.7001 193.80007 167.80011 192.40007 167.80011 190.90007 168.10012 181.50008 169.40012 172.10007 171.60012 162.90007 171.80011 162.00008 172.0001 161.10007 172.20012 160.20008 172.20012 160.20008 172.20012 160.10007 172.20012 160.10007 178.20012 137.40007 190.00012 116.00007 207.80011 98.200069 222.0001 84.00007 238.40012 73.60007 256.00013 67.00006 271.8001 61.00006 288.50013 58.10006 305.20014 58.10006 338.90016 58.10006 372.50013 70.60006 398.90016 95.50006 399.90016 96.40006 400.80015 97.300067 401.80015 98.300067 402.80015 99.200069 403.70014 100.200069 404.60014 101.200069 429.1 127.7 441.6 161.4 441.6 195.2Z" fill="#366eb9"/>
<path transform="matrix(.87289229,0,0,.87289229,416.76139,872.589)" d="M185.7 314.1C192.3 320.7 199.4 326.7 206.8 332 203.2 332.3 199.6 332.4 196 332.4 184.2 332.4 172.4 330.9 161 327.9H160.9C160.9 327.9 160.9 327.9 160.9 327.9 138.2 321.9 116.799999 310.1 98.99999 292.3 84.799999 278.09999 74.399997 261.69999 67.7 244.09999 61.799997 228.4 58.799997 211.79999 58.799997 195.19998 58.799997 161.29999 71.2 127.59998 96.2 101.19998 97.1 100.19998 98.1 99.29998 99 98.29998 99.9 97.29998 100.9 96.39998 101.9 95.49998 128.3 70.599979 162.1 58.099977 196 58.099977 199.6 58.099977 203.2 58.299978 206.8 58.499979 206.6 58.599977 206.5 58.699979 206.3 58.89998 199.1 64.099979 192.2 69.99998 185.7 76.39998 164 98.099979 149.4 124.39998 142.1 152.09998 142.1 152.19998 142 152.19998 142 152.29998 138.3 166.39998 136.4 180.79998 136.4 195.29998 136.4 215.49997 140 235.79998 147.29999 254.99997 155.5 276.6 168.3 296.8 185.7 314.1Z" fill="#366eb9"/>
<path transform="matrix(.87289229,0,0,.87289229,416.76139,872.589)" d="M441.6 303.9C441.6 337.8 429.2 371.5 404.2 397.9 403.30003 398.9 402.30003 399.8 401.40003 400.8 400.40003 401.8 399.50004 402.69999 398.50004 403.59999 372.10005 428.49998 338.30003 440.99998 304.50004 440.99998 300.90003 440.99998 297.20005 440.79997 293.60005 440.59999 301.00004 435.3 308.10005 429.3 314.70005 422.69999 336.40007 400.99998 350.90007 374.8 358.30006 347 358.30006 346.9 358.40007 346.9 358.40007 346.8 359.80006 341.5 360.90007 336.19999 361.80006 330.8 362.40007 327.19999 362.80006 323.69999 363.20005 320.09999 363.70005 314.69999 364.00004 309.3 364.00004 303.89997 364.00004 283.59999 360.40003 263.39997 353.10005 244.19997 349.00004 233.39997 343.80006 222.99997 337.40003 213.09996 331.00004 203.19997 323.50004 193.79996 314.90003 185.19997 308.30003 178.49997 301.2 172.59996 293.7 167.29998 295.2 167.19997 296.80003 167.09998 298.40003 166.99997 300.40003 166.89997 302.50004 166.89997 304.60005 166.89997 307.50004 166.89997 310.50004 166.99997 313.50004 167.19997 322.30003 167.79998 331.00004 169.19997 339.70005 171.49997 339.70005 171.49997 339.80006 171.49997 339.80006 171.49997 362.50007 177.49997 383.80006 189.29998 401.70005 207.09998 415.90007 221.29998 426.30006 237.69998 433.00004 255.29998 438.6 270.7 441.6 287.3 441.6 303.9Z" fill="#366eb9"/>
</g>
<path transform="matrix(1,0,0,-1,0,2257.92)" d="M468.00019-874.61557H802.23159V-540.38418H468.00019Z" fill-opacity="0"/>
</svg>
